<?xml version="1.0" encoding="UTF-8" standalone="no"?>
<!-- Created with Inkscape (http://www.inkscape.org/) -->

<svg
   xmlns:dc="http://purl.org/dc/elements/1.1/"
   xmlns:cc="http://creativecommons.org/ns#"
   xmlns:rdf="http://www.w3.org/1999/02/22-rdf-syntax-ns#"
   xmlns:svg="http://www.w3.org/2000/svg"
   xmlns="http://www.w3.org/2000/svg"
   xmlns:sodipodi="http://sodipodi.sourceforge.net/DTD/sodipodi-0.dtd"
   xmlns:inkscape="http://www.inkscape.org/namespaces/inkscape"
   width="128"
   height="128"
   viewBox="0 0 33.866666 33.866668"
   version="1.1"
   id="svg8"
   inkscape:version="0.92.4 (5da689c313, 2019-01-14)"
   sodipodi:docname="blink.svg">
  <defs
     id="defs2" />
  <sodipodi:namedview
     id="base"
     pagecolor="#ffffff"
     bordercolor="#666666"
     borderopacity="1.0"
     inkscape:pageopacity="0.0"
     inkscape:pageshadow="2"
     inkscape:zoom="5.6"
     inkscape:cx="57.045508"
     inkscape:cy="49.341371"
     inkscape:document-units="mm"
     inkscape:current-layer="layer1"
     showgrid="true"
     units="px"
     inkscape:pagecheckerboard="true"
     inkscape:window-width="1920"
     inkscape:window-height="985"
     inkscape:window-x="1280"
     inkscape:window-y="36"
     inkscape:window-maximized="1"
     inkscape:snap-bbox="true"
     inkscape:bbox-nodes="true"
     inkscape:snap-object-midpoints="true"
     inkscape:object-nodes="true"
     inkscape:snap-grids="true"
     inkscape:snap-others="true"
     inkscape:snap-nodes="true"
     inkscape:snap-global="false">
    <inkscape:grid
       type="xygrid"
       id="grid834"
       empspacing="4" />
  </sodipodi:namedview>
  <metadata
     id="metadata5">
    <rdf:RDF>
      <cc:Work
         rdf:about="">
        <dc:format>image/svg+xml</dc:format>
        <dc:type
           rdf:resource="http://purl.org/dc/dcmitype/StillImage" />
        <dc:title />
      </cc:Work>
    </rdf:RDF>
  </metadata>
  <g
     inkscape:label="Layer 1"
     inkscape:groupmode="layer"
     id="layer1"
     transform="translate(0,-263.13332)">
    <path
       style="opacity:1;fill:#dc8add;fill-opacity:1;fill-rule:nonzero;stroke:#613583;stroke-width:1.05833328;stroke-linecap:round;stroke-linejoin:round;stroke-miterlimit:4;stroke-dasharray:none;stroke-opacity:1;paint-order:normal"
       d="M 17.301672,266.36622 C 29.702613,266.1477 34.089251,287.09401 21.9538,291.10453 10.472852,295.5778 -1.3849073,278.49987 8.1969272,269.9103 c 2.3355158,-2.40135 5.7246708,-3.89638 9.1047448,-3.54408 z"
       id="rect836"
       inkscape:connector-curvature="0" />
    <path
       style="fill:#f8e45c;fill-opacity:1;stroke:#e5a50a;stroke-width:0.79374999;stroke-linecap:round;stroke-linejoin:round;stroke-miterlimit:4;stroke-dasharray:none;stroke-opacity:1"
       d="m 19.584255,278.605 c -1.058333,-0.52917 -2.374995,-0.17787 -3.321466,0.23151 -1.880483,0.81337 -1.235236,5.03583 -0.259858,6.024 0.563433,0.93905 3.28719,0.88712 3.661644,-0.23624 0.949084,-2.84725 -2.183514,-2.38528 -1.984375,-3.1183 0.535103,-0.80266 3.491555,-0.51972 1.904055,-2.90097 z"
       id="path1003"
       inkscape:connector-curvature="0"
       sodipodi:nodetypes="cscscc" />
    <path
       style="fill:#c061cb;fill-opacity:1;stroke:#613583;stroke-width:1.05833328;stroke-linecap:round;stroke-linejoin:round;stroke-miterlimit:4;stroke-dasharray:none;stroke-opacity:1"
       d="m 24.887103,292.89714 c -1.95971,0.10012 -3.291219,-2.09117 -2.664043,-3.85885 0.402856,-2.15187 2.305942,-4.3488 4.661632,-4.06136 1.731976,0.18988 2.709259,2.05021 2.182714,3.63602 -0.470545,1.96531 -2.052209,4.05484 -4.180303,4.28419 z"
       id="path1005"
       inkscape:connector-curvature="0" />
    <path
       style="fill:#c061cb;fill-opacity:1;stroke:#613583;stroke-width:1.05833328;stroke-linecap:round;stroke-linejoin:round;stroke-miterlimit:4;stroke-dasharray:none;stroke-opacity:1"
       d="m 14.494029,291.76669 c -0.86105,3.10619 -5.3062722,2.21031 -6.5267316,-0.17847 -1.8064781,-1.97473 -0.546441,-6.13994 2.5095626,-5.33234 2.332969,0.57765 4.299436,3.07015 4.017169,5.51081 z"
       id="path1005-9"
       inkscape:connector-curvature="0" />
    <path
       style="fill:none;stroke:#f66151;stroke-width:2.11666667;stroke-linecap:round;stroke-linejoin:round;stroke-opacity:1;stroke-miterlimit:4;stroke-dasharray:none"
       d="M 8.4666666,283.50624 C 9.6321241,282.65639 11.675632,282.51357 12.7,282.4479"
       id="path1037"
       inkscape:connector-curvature="0" />
    <path
       style="fill:none;stroke:#f66151;stroke-width:2.11666656;stroke-linecap:round;stroke-linejoin:round;stroke-miterlimit:4;stroke-dasharray:none;stroke-opacity:1"
       d="m 21.695833,281.65415 c 1.720497,-0.17303 3.726227,0.41245 5.315291,0.35435"
       id="path1041"
       inkscape:connector-curvature="0"
       sodipodi:nodetypes="cc" />
    <path
       style="fill:none;stroke:#241f31;stroke-width:0.5291667;stroke-linecap:round;stroke-linejoin:round;stroke-miterlimit:4;stroke-dasharray:none;stroke-opacity:1"
       d="m 7.5888794,276.37417 c 0.1565402,0.45608 0.3420867,0.95539 0.4960938,1.41741"
       id="path1160"
       inkscape:connector-curvature="0" />
    <path
       style="fill:none;stroke:#241f31;stroke-width:0.5291667;stroke-linecap:round;stroke-linejoin:round;stroke-miterlimit:4;stroke-dasharray:none;stroke-opacity:1"
       d="m 11.707476,275.85396 c -0.422107,0.40426 -0.692491,0.91251 -0.94494,1.41741"
       id="path1162"
       inkscape:connector-curvature="0" />
    <path
       style="fill:none;stroke:#241f31;stroke-width:0.5291667;stroke-linecap:round;stroke-linejoin:round;stroke-miterlimit:4;stroke-dasharray:none;stroke-opacity:1"
       d="m 13.708556,275.43033 c -0.592314,0.33187 -0.98075,0.80395 -1.275669,1.39379"
       id="path1164"
       inkscape:connector-curvature="0" />
    <path
       style="fill:none;stroke:#241f31;stroke-width:0.5291667;stroke-linecap:round;stroke-linejoin:round;stroke-miterlimit:4;stroke-dasharray:none;stroke-opacity:1"
       d="m 9.3248597,275.95062 c 0.17951,0.49375 0.2367759,1.00806 0.3071055,1.53553"
       id="path1166"
       inkscape:connector-curvature="0" />
    <path
       style="fill:none;stroke:#241f31;stroke-width:0.5291667;stroke-linecap:round;stroke-linejoin:round;stroke-miterlimit:4;stroke-dasharray:none;stroke-opacity:1"
       d="m 19.687967,275.77154 c 0.561485,-0.0408 1.094878,0.0394 1.630022,0.0709"
       id="path1168"
       inkscape:connector-curvature="0" />
    <path
       style="fill:none;stroke:#241f31;stroke-width:0.5291667;stroke-linecap:round;stroke-linejoin:round;stroke-miterlimit:4;stroke-dasharray:none;stroke-opacity:1"
       d="m 21.799837,274.42766 c 0.452913,0.10535 0.778837,0.54966 1.181176,0.77957"
       id="path1170"
       inkscape:connector-curvature="0" />
    <path
       style="fill:none;stroke:#241f31;stroke-width:0.5291667;stroke-linecap:round;stroke-linejoin:round;stroke-miterlimit:4;stroke-dasharray:none;stroke-opacity:1"
       d="m 23.947407,273.23195 c 0.101687,0.53373 0.164938,1.07168 0.236235,1.6064"
       id="path1172"
       inkscape:connector-curvature="0" />
    <path
       style="fill:none;stroke:#241f31;stroke-width:0.5291667;stroke-linecap:round;stroke-linejoin:round;stroke-miterlimit:4;stroke-dasharray:none;stroke-opacity:1"
       d="m 25.877819,273.57582 c 0.01906,0.49456 -0.115402,1.00766 -0.259859,1.44104"
       id="path1174"
       inkscape:connector-curvature="0" />
    <path
       style="fill:#57e389;fill-opacity:1;stroke:#26a269;stroke-width:1.05833328;stroke-linecap:round;stroke-linejoin:round;stroke-miterlimit:4;stroke-dasharray:none;stroke-opacity:1"
       d="m 8.41899,264.59356 c -1.7054351,3.02604 0.073129,5.90213 1.870886,8.41899 1.675477,-0.89513 3.845295,-2.54565 4.744035,-4.34313 -2.40679,-1.31507 -3.613209,-4.4761 -6.614921,-4.07586 z"
       id="path1186"
       inkscape:connector-curvature="0" />
    <path
       style="fill:#57e389;fill-opacity:1;stroke:#26a269;stroke-width:1.05833328;stroke-linecap:round;stroke-linejoin:round;stroke-miterlimit:4;stroke-dasharray:none;stroke-opacity:1"
       d="m 16.319793,268.56203 c 0.237512,-2.1064 2.535477,-3.58284 4.252232,-4.44122 0.290949,2.47052 1.553151,5.34504 0.472471,7.86663 -2.499469,0.23185 -3.954868,-1.50083 -4.724703,-3.42541 z"
       id="path1190"
       inkscape:connector-curvature="0" />
    <path
       style="fill:#57e389;fill-opacity:1;stroke:#26a269;stroke-width:1.05833328;stroke-linecap:round;stroke-linejoin:round;stroke-miterlimit:4;stroke-dasharray:none;stroke-opacity:1"
       d="m 15.729205,267.00288 c -0.447506,-0.11513 -0.837793,-0.0154 -1.204799,0.25986 -1.536907,1.15268 -0.237113,3.65406 1.653646,3.0238 1.91472,-0.63824 1.037663,-3.00494 -0.448847,-3.28366 z"
       id="path1188"
       inkscape:connector-curvature="0" />
    <path
       style="fill:none;stroke:#241f31;stroke-width:1.32291667;stroke-linecap:round;stroke-linejoin:round;stroke-opacity:1;stroke-miterlimit:4;stroke-dasharray:none;fill-opacity:1"
       d="m 7.110677,278.78626 c 1.9912626,-0.91704 4.310059,-1.0888 6.425595,-1.51191"
       id="path835"
       inkscape:connector-curvature="0" />
    <path
       style="fill:none;stroke:#241f31;stroke-width:1.32291667;stroke-linecap:round;stroke-linejoin:round;stroke-opacity:1;stroke-miterlimit:4;stroke-dasharray:none;fill-opacity:1"
       d="m 21.119419,276.6129 c 1.561352,-1.15169 4.077896,-1.11031 6.071244,-1.11031"
       id="path837"
       inkscape:connector-curvature="0" />
  </g>
</svg>
