<svg width="152" height="22" viewBox="0 0 152 22" fill="none" xmlns="http://www.w3.org/2000/svg">
<g clip-path="url(#clip0)">
<path d="M146 0H6C2.68629 0 0 2.68629 0 6V15.9999C0 19.3136 2.68629 21.9999 6 21.9999H146C149.314 21.9999 152 19.3136 152 15.9999V6C152 2.68629 149.314 0 146 0Z" fill="#F66151"/>
<path d="M11.003 4.99997C11.003 4.99997 8.00303 4.99997 8.00303 7.99997V13C8.00303 13 8.04692 14.4187 8.03132 15.0004C8.03132 16 7.49364 16.4135 6.62696 17.1211C5.99971 17.6109 5.85285 18.4313 6.32032 18.8184C6.74964 19.1738 7.48199 19.1224 7.98048 18.4746L9.00001 17C9.69755 15.9861 9.98274 15.1242 10 14L10.003 7.99997C10.0035 6.99997 11 7 11 7V13.5742L14.003 10.5V7.99997C14.003 6.99997 15 7 15 7L15.003 9.49997L17 7.46484C17.3384 7.15289 17.503 6.99996 18 7L18.003 7.99997L14 12H18C18 12 18.003 13 17 13H13L11 15C11 15.4259 11 17.0059 13 17.0059L17.003 16.9998C17.003 16.9998 20.003 16.9999 20 14.0097V5L11.003 4.99997Z" fill="white"/>
<path d="M33.7025 12.778C33.3285 14.3327 32.2102 15.11 30.3475 15.11C29.5849 15.11 28.9249 14.9633 28.3675 14.67C27.8175 14.3767 27.3922 13.9513 27.0915 13.394C26.7982 12.8293 26.6515 12.1547 26.6515 11.37C26.6515 10.5853 26.7982 9.91433 27.0915 9.357C27.3922 8.79233 27.8175 8.36333 28.3675 8.07C28.9249 7.77667 29.5849 7.63 30.3475 7.63C31.1982 7.63 31.9242 7.81333 32.5255 8.18C33.1269 8.53933 33.5009 9.08933 33.6475 9.83L31.4475 10.688C31.3889 10.2407 31.2825 9.94 31.1285 9.786C30.9745 9.632 30.7362 9.555 30.4135 9.555C30.0322 9.555 29.7462 9.70167 29.5555 9.995C29.3649 10.2883 29.2695 10.7467 29.2695 11.37C29.2695 11.9933 29.3612 12.4517 29.5445 12.745C29.7279 13.0383 30.0102 13.185 30.3915 13.185C30.7362 13.185 30.9855 13.108 31.1395 12.954C31.2935 12.8 31.3925 12.547 31.4365 12.195L33.7025 12.778ZM40.0689 13.647C40.1935 13.647 40.2852 13.6323 40.3439 13.603L40.1459 14.89C39.8965 15.0367 39.6252 15.11 39.3319 15.11C38.8845 15.11 38.5105 15.033 38.2099 14.879C37.9092 14.7177 37.7075 14.4867 37.6049 14.186C37.4362 14.472 37.1869 14.6993 36.8569 14.868C36.5342 15.0293 36.1309 15.11 35.6469 15.11C35.0749 15.11 34.6495 15 34.3709 14.78C34.0922 14.5527 33.9529 14.2263 33.9529 13.801C33.9529 13.339 34.1179 12.9723 34.4479 12.701C34.7779 12.4223 35.3279 12.1987 36.0979 12.03L37.1869 11.788V11.568C37.1869 11.3993 37.1429 11.2673 37.0549 11.172C36.9742 11.0767 36.8532 11.029 36.6919 11.029C36.5159 11.029 36.3765 11.0803 36.2739 11.183C36.1712 11.2783 36.1162 11.4507 36.1089 11.7L34.0189 11.381C34.0775 10.7503 34.3415 10.2627 34.8109 9.918C35.2802 9.566 35.9549 9.39 36.8349 9.39C37.8102 9.39 38.5289 9.577 38.9909 9.951C39.4602 10.325 39.6949 10.8933 39.6949 11.656V13.196C39.6949 13.4967 39.8195 13.647 40.0689 13.647ZM36.7139 13.735C36.8532 13.735 36.9669 13.691 37.0549 13.603C37.1429 13.5077 37.1869 13.372 37.1869 13.196V12.668L36.8239 12.778C36.6699 12.822 36.5489 12.8953 36.4609 12.998C36.3729 13.0933 36.3289 13.2107 36.3289 13.35C36.3289 13.4747 36.3655 13.57 36.4389 13.636C36.5122 13.702 36.6039 13.735 36.7139 13.735ZM44.9187 9.39C45.4613 9.39 45.883 9.55133 46.1837 9.874C46.4917 10.1967 46.6457 10.6513 46.6457 11.238V15H44.1157V11.898C44.1157 11.656 44.0863 11.491 44.0277 11.403C43.969 11.3077 43.87 11.26 43.7307 11.26C43.5473 11.26 43.4117 11.3297 43.3237 11.469C43.243 11.6083 43.2027 11.8247 43.2027 12.118V15H40.6727V9.5H42.9497L43.0047 10.699C43.166 10.2737 43.408 9.951 43.7307 9.731C44.0533 9.50367 44.4493 9.39 44.9187 9.39ZM48.5249 7.487C49.0016 7.487 49.3573 7.641 49.5919 7.949C49.8339 8.257 49.9549 8.64933 49.9549 9.126C49.9549 9.66867 49.8046 10.1563 49.5039 10.589C49.2033 11.0217 48.7706 11.3517 48.2059 11.579L47.1389 10.897C47.5423 10.7283 47.8723 10.5523 48.1289 10.369C48.3929 10.1783 48.5836 9.951 48.7009 9.687L48.6459 9.643C48.5506 9.74567 48.4333 9.797 48.2939 9.797C47.9933 9.797 47.7293 9.70533 47.5019 9.522C47.2819 9.33133 47.1719 9.06 47.1719 8.708C47.1719 8.29733 47.2893 7.993 47.5239 7.795C47.7659 7.58967 48.0996 7.487 48.5249 7.487ZM55.2138 14.736C55.0305 14.846 54.7811 14.934 54.4658 15C54.1578 15.0733 53.8608 15.11 53.5748 15.11C52.7828 15.11 52.1925 14.9597 51.8038 14.659C51.4151 14.351 51.2208 13.8487 51.2208 13.152V11.205H50.3738V9.5H51.2208V8.334L53.7508 7.63V9.5H55.1368V11.205H53.7508V12.756C53.7508 13.0053 53.8021 13.185 53.9048 13.295C54.0148 13.3977 54.1835 13.449 54.4108 13.449C54.6821 13.449 54.9131 13.4013 55.1038 13.306L55.2138 14.736ZM65.2298 9.621H62.9638V15H60.4008V9.621H58.1238V7.74H65.2298V9.621ZM70.1198 9.39C70.6625 9.39 71.0842 9.55133 71.3848 9.874C71.6928 10.1967 71.8468 10.6513 71.8468 11.238V15H69.3168V11.898C69.3168 11.656 69.2875 11.4873 69.2288 11.392C69.1702 11.2967 69.0712 11.249 68.9318 11.249C68.7485 11.249 68.6128 11.3187 68.5248 11.458C68.4442 11.5973 68.4038 11.8173 68.4038 12.118V15H65.8738V7.3H68.4038V10.622C68.5505 10.2187 68.7705 9.91433 69.0638 9.709C69.3572 9.49633 69.7092 9.39 70.1198 9.39ZM78.4591 12.074C78.4591 12.3527 78.4408 12.5727 78.4041 12.734H74.9061C74.9428 13.0053 75.0198 13.1887 75.1371 13.284C75.2544 13.3793 75.4304 13.427 75.6651 13.427C76.0244 13.427 76.2444 13.2693 76.3251 12.954L78.3601 13.504C78.2354 14.032 77.9274 14.4317 77.4361 14.703C76.9521 14.9743 76.3618 15.11 75.6651 15.11C74.6238 15.11 73.8318 14.8643 73.2891 14.373C72.7538 13.8817 72.4861 13.174 72.4861 12.25C72.4861 11.3407 72.7501 10.6367 73.2781 10.138C73.8134 9.63933 74.5651 9.39 75.5331 9.39C76.4791 9.39 77.2014 9.632 77.7001 10.116C78.2061 10.6 78.4591 11.2527 78.4591 12.074ZM75.5441 11.062C75.3534 11.062 75.2068 11.117 75.1041 11.227C75.0014 11.337 74.9354 11.5277 74.9061 11.799H76.0941C76.0721 11.5497 76.0171 11.3663 75.9291 11.249C75.8484 11.1243 75.7201 11.062 75.5441 11.062ZM86.7972 9.39C87.3399 9.39 87.7615 9.55133 88.0622 9.874C88.3702 10.1967 88.5242 10.6513 88.5242 11.238V15H85.9942V11.898C85.9942 11.656 85.9649 11.491 85.9062 11.403C85.8475 11.3077 85.7485 11.26 85.6092 11.26C85.4259 11.26 85.2902 11.3297 85.2022 11.469C85.1215 11.6083 85.0812 11.8247 85.0812 12.118V15H82.5512V11.898C82.5512 11.656 82.5219 11.491 82.4632 11.403C82.4045 11.3077 82.3055 11.26 82.1662 11.26C81.9829 11.26 81.8472 11.3297 81.7592 11.469C81.6785 11.6083 81.6382 11.8247 81.6382 12.118V15H79.1082V9.5H81.3852L81.4402 10.699C81.6015 10.2737 81.8435 9.951 82.1662 9.731C82.4889 9.50367 82.8849 9.39 83.3542 9.39C83.7722 9.39 84.1169 9.48533 84.3882 9.676C84.6669 9.86667 84.8649 10.138 84.9822 10.49C85.1582 10.1307 85.3965 9.85933 85.6972 9.676C86.0052 9.48533 86.3719 9.39 86.7972 9.39ZM95.131 12.074C95.131 12.3527 95.1127 12.5727 95.076 12.734H91.578C91.6147 13.0053 91.6917 13.1887 91.809 13.284C91.9263 13.3793 92.1023 13.427 92.337 13.427C92.6963 13.427 92.9163 13.2693 92.997 12.954L95.032 13.504C94.9073 14.032 94.5993 14.4317 94.108 14.703C93.624 14.9743 93.0337 15.11 92.337 15.11C91.2957 15.11 90.5037 14.8643 89.961 14.373C89.4257 13.8817 89.158 13.174 89.158 12.25C89.158 11.3407 89.422 10.6367 89.95 10.138C90.4853 9.63933 91.237 9.39 92.205 9.39C93.151 9.39 93.8733 9.632 94.372 10.116C94.878 10.6 95.131 11.2527 95.131 12.074ZM92.216 11.062C92.0253 11.062 91.8787 11.117 91.776 11.227C91.6733 11.337 91.6073 11.5277 91.578 11.799H92.766C92.744 11.5497 92.689 11.3663 92.601 11.249C92.5203 11.1243 92.392 11.062 92.216 11.062ZM105.32 9.621H103.054V15H100.491V9.621H98.2137V7.74H105.32V9.621ZM110.21 9.39C110.752 9.39 111.174 9.55133 111.475 9.874C111.783 10.1967 111.937 10.6513 111.937 11.238V15H109.407V11.898C109.407 11.656 109.377 11.4873 109.319 11.392C109.26 11.2967 109.161 11.249 109.022 11.249C108.838 11.249 108.703 11.3187 108.615 11.458C108.534 11.5973 108.494 11.8173 108.494 12.118V15H105.964V7.3H108.494V10.622C108.64 10.2187 108.86 9.91433 109.154 9.709C109.447 9.49633 109.799 9.39 110.21 9.39ZM114.05 9.148C113.551 9.148 113.196 9.06733 112.983 8.906C112.778 8.74467 112.675 8.47333 112.675 8.092C112.675 7.71067 112.778 7.43933 112.983 7.278C113.196 7.11667 113.551 7.036 114.05 7.036C114.549 7.036 114.901 7.11667 115.106 7.278C115.319 7.43933 115.425 7.71067 115.425 8.092C115.425 8.47333 115.319 8.74467 115.106 8.906C114.901 9.06733 114.549 9.148 114.05 9.148ZM115.315 15H112.785V9.5H115.315V15ZM118.721 15.11C118.039 15.11 117.463 15.0477 116.994 14.923C116.524 14.791 116.128 14.582 115.806 14.296L116.917 12.954C117.129 13.1447 117.375 13.2987 117.654 13.416C117.932 13.5333 118.226 13.592 118.534 13.592C118.673 13.592 118.787 13.581 118.875 13.559C118.97 13.5297 119.018 13.4857 119.018 13.427C119.018 13.361 118.955 13.3023 118.831 13.251C118.706 13.1923 118.493 13.1337 118.193 13.075C117.401 12.921 116.821 12.701 116.455 12.415C116.095 12.1217 115.916 11.7513 115.916 11.304C115.916 10.9813 116.022 10.677 116.235 10.391C116.455 10.0977 116.788 9.85933 117.236 9.676C117.683 9.48533 118.237 9.39 118.897 9.39C119.542 9.39 120.081 9.467 120.514 9.621C120.954 9.775 121.298 9.96567 121.548 10.193L120.514 11.414C120.176 11.0767 119.678 10.908 119.018 10.908C118.82 10.908 118.677 10.9263 118.589 10.963C118.501 10.9997 118.457 11.0473 118.457 11.106C118.457 11.194 118.68 11.2673 119.128 11.326C119.971 11.4433 120.587 11.6487 120.976 11.942C121.364 12.228 121.559 12.624 121.559 13.13C121.559 13.702 121.324 14.175 120.855 14.549C120.385 14.923 119.674 15.11 118.721 15.11ZM129.032 13.614H127.074L126.733 15H124.181L126.535 7.74H129.615L131.98 15H129.362L129.032 13.614ZM128.658 12.019L128.075 9.599H128.042L127.756 10.831L127.459 12.019H128.658ZM136.396 9.39C137.07 9.39 137.587 9.63567 137.947 10.127C138.313 10.6183 138.497 11.315 138.497 12.217C138.497 13.1337 138.31 13.845 137.936 14.351C137.569 14.857 137.052 15.11 136.385 15.11C136.011 15.11 135.695 15.0183 135.439 14.835C135.182 14.6517 134.98 14.3987 134.834 14.076V17.31H132.304V9.5H134.526L134.592 10.787C134.731 10.3543 134.955 10.0133 135.263 9.764C135.578 9.51467 135.956 9.39 136.396 9.39ZM135.373 13.328C135.563 13.328 135.706 13.251 135.802 13.097C135.897 12.943 135.945 12.6607 135.945 12.25C135.945 11.8393 135.897 11.557 135.802 11.403C135.706 11.2417 135.563 11.161 135.373 11.161C135.197 11.161 135.061 11.2453 134.966 11.414C134.878 11.5753 134.834 11.8393 134.834 12.206V12.294C134.834 12.646 134.878 12.9063 134.966 13.075C135.054 13.2437 135.189 13.328 135.373 13.328ZM143.292 9.39C143.967 9.39 144.484 9.63567 144.843 10.127C145.21 10.6183 145.393 11.315 145.393 12.217C145.393 13.1337 145.206 13.845 144.832 14.351C144.465 14.857 143.948 15.11 143.281 15.11C142.907 15.11 142.592 15.0183 142.335 14.835C142.078 14.6517 141.877 14.3987 141.73 14.076V17.31H139.2V9.5H141.422L141.488 10.787C141.627 10.3543 141.851 10.0133 142.159 9.764C142.474 9.51467 142.852 9.39 143.292 9.39ZM142.269 13.328C142.46 13.328 142.603 13.251 142.698 13.097C142.793 12.943 142.841 12.6607 142.841 12.25C142.841 11.8393 142.793 11.557 142.698 11.403C142.603 11.2417 142.46 11.161 142.269 11.161C142.093 11.161 141.957 11.2453 141.862 11.414C141.774 11.5753 141.73 11.8393 141.73 12.206V12.294C141.73 12.646 141.774 12.9063 141.862 13.075C141.95 13.2437 142.086 13.328 142.269 13.328Z" fill="white"/>
</g>
<defs>
<clipPath id="clip0">
<rect width="152" height="21.9999" fill="white"/>
</clipPath>
</defs>
</svg>
