<?xml version="1.0" encoding="UTF-8" standalone="no"?>
<svg
   xmlns:osb="http://www.openswatchbook.org/uri/2009/osb"
   xmlns:dc="http://purl.org/dc/elements/1.1/"
   xmlns:cc="http://creativecommons.org/ns#"
   xmlns:rdf="http://www.w3.org/1999/02/22-rdf-syntax-ns#"
   xmlns:svg="http://www.w3.org/2000/svg"
   xmlns="http://www.w3.org/2000/svg"
   width="16"
   viewBox="0 0 16 16"
   version="1.1"
   id="svg7384"
   height="16">
  <metadata
     id="metadata90">
    <rdf:RDF>
      <cc:Work
         rdf:about="">
        <dc:format>image/svg+xml</dc:format>
        <dc:type
           rdf:resource="http://purl.org/dc/dcmitype/StillImage" />
        <dc:title>Gnome Symbolic Icon Theme</dc:title>
      </cc:Work>
    </rdf:RDF>
  </metadata>
  <title
     id="title9167">Gnome Symbolic Icon Theme</title>
  <defs
     id="defs7386">
    <linearGradient
       osb:paint="solid"
       id="linearGradient7212">
      <stop
         style="stop-color:#000000;stop-opacity:1;"
         offset="0"
         id="stop7214" />
    </linearGradient>
  </defs>
  <g
     transform="translate(-380,160)"
     style="display:inline"
     id="layer1" />
  <g
     transform="translate(-621.0002,527)"
     style="display:inline"
     id="layer9" />
  <g
     transform="translate(-621.0002,527)"
     style="display:inline"
     id="g7628" />
  <g
     transform="translate(-380,-40)"
     id="layer13">
    <path
       d="M 394,41 V 53.999999 C 394,54.618717 393.67028,55 393,55 c -0.58189,0 -1,-0.40338 -1,-1.000001 V 49.392543 C 387.91441,45.791446 391.03624,41 394,41 Z"
       id="path10893"
       style="color:#000000;display:inline;overflow:visible;visibility:visible;fill:#2e3436;fill-opacity:1;fill-rule:nonzero;stroke:none;stroke-width:0.5;marker:none;enable-background:accumulate" />
    <path
       d="m 381,45 c 0,0.83333 0.40155,1.56113 0.9375,2.09375 0.52898,0.525689 1.23978,0.896688 2.0625,0.90625 v 6 c -0.007,0.528313 0.47163,1.014242 1,1.014242 0.52837,0 1.00747,-0.485929 1,-1.014242 v -6 h 0.0312 c 0.8287,0 1.53642,-0.37492 2.0625,-0.90625 C 388.61983,46.56242 389,45.83333 389,45 c 0,-0.682593 -0.63368,-4 -2,-4 v 1 c -2.2e-4,0.01032 -1.5e-4,0.02089 0,0.03125 V 45 c 0,0.16667 -0.12724,0.43758 -0.34375,0.65625 C 386.43974,45.87492 386.17292,46 386.03125,46 h -0.0312 l -0.51563,-5 h -0.99999 l -0.48438,5 C 383.81738,45.98982 383.5533,45.864433 383.3438,45.65625 383.125,45.43886 383,45.16667 383,45 v -2.96875 c 2.6e-4,-0.01059 1.4e-4,-0.02071 0,-0.03125 v -1 c -1.62314,0 -2,3.404642 -2,4 z"
       id="path10895"
       style="color:#000000;font-style:normal;font-variant:normal;font-weight:normal;font-stretch:normal;font-size:medium;line-height:normal;font-family:Sans;-inkscape-font-specification:Sans;text-indent:0;text-align:start;text-decoration:none;text-decoration-line:none;letter-spacing:normal;word-spacing:normal;text-transform:none;writing-mode:lr-tb;direction:ltr;baseline-shift:baseline;text-anchor:start;display:inline;overflow:visible;visibility:visible;fill:#2e3436;fill-opacity:1;fill-rule:nonzero;stroke:none;stroke-width:0.5;marker:none;enable-background:accumulate" />
  </g>
  <g
     transform="translate(-380,160)"
     style="display:inline"
     id="g6387" />
  <g
     transform="translate(-380,160)"
     style="display:inline"
     id="layer10" />
  <g
     transform="translate(-380,160)"
     id="layer12" />
  <g
     transform="translate(-380,160)"
     style="display:inline"
     id="layer11" />
</svg>
