<?xml version="1.0" encoding="UTF-8" standalone="no"?>
<!-- Created with Inkscape (http://www.inkscape.org/) -->

<svg
   xmlns:dc="http://purl.org/dc/elements/1.1/"
   xmlns:cc="http://creativecommons.org/ns#"
   xmlns:rdf="http://www.w3.org/1999/02/22-rdf-syntax-ns#"
   xmlns:svg="http://www.w3.org/2000/svg"
   xmlns="http://www.w3.org/2000/svg"
   xmlns:xlink="http://www.w3.org/1999/xlink"
   xmlns:sodipodi="http://sodipodi.sourceforge.net/DTD/sodipodi-0.dtd"
   xmlns:inkscape="http://www.inkscape.org/namespaces/inkscape"
   width="128"
   height="128"
   viewBox="0 0 33.866666 33.866668"
   version="1.1"
   id="svg8"
   inkscape:version="0.92.4 (5da689c313, 2019-01-14)"
   sodipodi:docname="yay.svg">
  <defs
     id="defs2">
    <linearGradient
       inkscape:collect="always"
       id="linearGradient921">
      <stop
         style="stop-color:#f9f06b;stop-opacity:1"
         offset="0"
         id="stop917" />
      <stop
         style="stop-color:#f6d32d;stop-opacity:1"
         offset="1"
         id="stop919" />
    </linearGradient>
    <radialGradient
       inkscape:collect="always"
       xlink:href="#linearGradient921"
       id="radialGradient923"
       cx="27.153984"
       cy="267.53372"
       fx="27.153984"
       fy="267.53372"
       r="4.0115327"
       gradientTransform="matrix(1,0,0,1.0198685,-2.3151042,-3.8594264)"
       gradientUnits="userSpaceOnUse" />
  </defs>
  <sodipodi:namedview
     id="base"
     pagecolor="#ffffff"
     bordercolor="#666666"
     borderopacity="1.0"
     inkscape:pageopacity="0.0"
     inkscape:pageshadow="2"
     inkscape:zoom="11.2"
     inkscape:cx="89.773051"
     inkscape:cy="105.40112"
     inkscape:document-units="mm"
     inkscape:current-layer="layer1"
     showgrid="true"
     units="px"
     inkscape:pagecheckerboard="true"
     inkscape:window-width="1920"
     inkscape:window-height="985"
     inkscape:window-x="1280"
     inkscape:window-y="36"
     inkscape:window-maximized="1"
     inkscape:snap-bbox="true"
     inkscape:bbox-nodes="true"
     inkscape:snap-object-midpoints="true"
     inkscape:object-nodes="true"
     inkscape:snap-grids="false"
     inkscape:snap-others="true"
     inkscape:snap-nodes="true"
     inkscape:snap-global="true">
    <inkscape:grid
       type="xygrid"
       id="grid834"
       empspacing="4" />
  </sodipodi:namedview>
  <metadata
     id="metadata5">
    <rdf:RDF>
      <cc:Work
         rdf:about="">
        <dc:format>image/svg+xml</dc:format>
        <dc:type
           rdf:resource="http://purl.org/dc/dcmitype/StillImage" />
        <dc:title />
      </cc:Work>
    </rdf:RDF>
  </metadata>
  <g
     inkscape:label="Layer 1"
     inkscape:groupmode="layer"
     id="layer1"
     transform="translate(0,-263.13332)">
    <path
       style="fill:#62a0ea;fill-opacity:1;stroke:#103b6f;stroke-width:0.64664745;stroke-linecap:round;stroke-linejoin:round;stroke-miterlimit:4;stroke-dasharray:none;stroke-opacity:1"
       d="m 20.306909,287.25327 c 0.279292,2.54324 -0.802862,7.29157 1.605727,7.29157 2.007157,0 2.105496,-4.94584 1.605726,-7.29157"
       id="path827-2-7"
       inkscape:connector-curvature="0"
       sodipodi:nodetypes="ccc" />
    <path
       style="fill:#98c1f1;fill-opacity:1;stroke:#000000;stroke-width:0.52916676;stroke-linecap:round;stroke-linejoin:round;stroke-miterlimit:4;stroke-dasharray:none;stroke-opacity:1"
       d="m 16.331049,290.96404 c -3.44789,0.086 -7.2569128,-0.30359 -9.9380949,-2.70019 -2.1862158,-1.85883 -2.7290172,-5.11404 -1.6793222,-7.71402 0.618765,-1.71038 1.8681701,-3.12184 3.3588747,-4.12975 9.3446254,-4.87733 4.6885994,-8.38453 5.6357764,-9.0267 4.745145,2.70443 12.607157,8.83237 14.954221,13.34267 1.02571,2.37011 -0.04289,5.14397 -1.710993,6.94184 -1.632951,1.81479 -4.012247,2.82927 -6.433567,2.93943 -1.392704,0.15011 -2.795069,0.1872 -4.186895,0.34672 z"
       id="path825"
       inkscape:connector-curvature="0"
       sodipodi:nodetypes="ccccccccc" />
    <path
       style="fill:#000000;fill-opacity:1;stroke:#000000;stroke-width:0.52916676;stroke-linecap:round;stroke-linejoin:round;stroke-miterlimit:4;stroke-dasharray:none;stroke-opacity:1"
       d="m 13.156049,279.85153 c -1.036347,0.15748 -1.761703,1.08921 -2.080384,2.02941 -0.01379,0.47762 0.332517,0.88077 0.570753,1.26931 0.412101,0.49603 1.017111,0.87258 1.663748,0.9355 0.646973,0.008 1.375639,-0.26114 1.626815,-0.90816 0.182621,-0.48332 0.397809,-1.01621 0.287244,-1.53767 -0.102383,-0.68463 -0.47077,-1.41232 -1.181072,-1.62121 -0.284905,-0.10148 -0.586935,-0.14302 -0.887104,-0.16718 z"
       id="path978"
       inkscape:connector-curvature="0" />
    <path
       style="fill:#000000;fill-opacity:1;stroke:#000000;stroke-width:0.52916682;stroke-linecap:round;stroke-linejoin:round;stroke-miterlimit:4;stroke-dasharray:none;stroke-opacity:1"
       d="m 21.627156,284.07356 c 1.027894,-0.17879 1.7984,-1.07768 2.069557,-2.05005 -0.171281,-1.35187 -1.667024,-2.57419 -3.030742,-2.04858 -1.065015,0.4616 -1.340786,1.89652 -0.956367,2.9031 0.284472,0.81363 1.101217,1.18319 1.917552,1.19553 z"
       id="path978-1"
       inkscape:connector-curvature="0" />
    <path
       style="fill:none;stroke:#000000;stroke-width:0.52916676;stroke-linecap:round;stroke-linejoin:round;stroke-miterlimit:4;stroke-dasharray:none;stroke-opacity:1"
       d="m 13.156049,286.20153 c 0.932587,0.83985 2.809343,1.32152 4.233333,1.32292 1.840272,-0.0945 3.038018,-0.53052 4.233334,-1.32292"
       id="path1024"
       inkscape:connector-curvature="0"
       sodipodi:nodetypes="ccc" />
    <path
       inkscape:connector-curvature="0"
       style="fill:#000000;fill-opacity:0.1372549;stroke:none;stroke-width:0.64664739;stroke-linecap:round;stroke-linejoin:round;stroke-miterlimit:4;stroke-dasharray:none;stroke-opacity:1"
       d="m 23.776095,290.19381 -3.427065,0.18514 c -0.02286,0.73031 -0.04825,0.43622 -0.02431,1.12559 0.96775,0.94871 2.387948,1.0244 3.35258,-0.0173 0.100106,-0.7483 0.127477,-0.52034 0.09879,-1.29343 z"
       id="path827-2-0"
       sodipodi:nodetypes="cccccc" />
    <path
       style="fill:#0a0055;fill-opacity:0.20361992;stroke:none;stroke-width:0.52916676;stroke-linecap:round;stroke-linejoin:round;stroke-miterlimit:4;stroke-dasharray:none;stroke-opacity:0.50226249"
       d="m 4.1857571,282.63522 c 0.033082,1.53714 1.1469947,4.72711 2.2073968,5.62872 2.6811821,2.3966 6.4900051,2.78609 9.9378941,2.70009 1.391826,-0.15952 2.794121,-0.19664 4.186825,-0.34675 2.42132,-0.11016 4.800765,-1.12456 6.433714,-2.93936 0.708369,-0.76347 1.991024,-3.78257 1.990725,-5.02863 -0.642374,3.22367 -3.142338,5.45914 -5.249062,6.35291 -2.106725,0.89377 -5.527125,1.02111 -7.542771,0.92682 -2.015645,-0.0943 -4.364871,-0.58558 -6.4777952,-1.03268 -2.4964006,-0.52824 -5.0773797,-3.53258 -5.4869267,-6.26112 z"
       id="path825-2"
       inkscape:connector-curvature="0"
       sodipodi:nodetypes="ccccccsssc" />
    <path
       style="fill:#ed333b;fill-opacity:1;stroke:none;stroke-width:0.26458332px;stroke-linecap:butt;stroke-linejoin:miter;stroke-opacity:1"
       d="m 9.9810485,284.61403 c -1.0604471,0.30191 -1.1999865,0.98099 0,1.05834 0.7254905,0.0849 1.4089455,0.0664 2.1166675,0 1.37407,-0.20396 1.033015,-0.90375 0,-1.05834 -0.722404,-0.20079 -1.383075,0.0178 -2.1166675,0 z"
       id="path1114"
       inkscape:connector-curvature="0" />
    <path
       style="fill:#ed333b;fill-opacity:1;stroke:none;stroke-width:0.26458332px;stroke-linecap:butt;stroke-linejoin:miter;stroke-opacity:1"
       d="m 23.474799,284.34945 c -0.336978,0.10461 -0.948126,0.3135 -0.805443,0.76338 0.235684,0.29818 0.6642,0.26809 1.006949,0.31471 0.772771,0.0591 1.563065,0.0679 2.321831,-0.10734 0.451136,-0.0193 0.69094,-0.60958 0.192911,-0.78706 -0.619927,-0.28609 -1.324048,-0.3069 -1.991994,-0.22182 -0.240647,0.0223 -0.482945,0.0425 -0.724254,0.0381 z"
       id="path1114-6"
       inkscape:connector-curvature="0" />
    <path
       style="fill:#fcfcfc;fill-opacity:1;stroke:none;stroke-width:0.26458332px;stroke-linecap:butt;stroke-linejoin:miter;stroke-opacity:1"
       d="m 12.891466,280.11612 c -1.411498,0.56261 0.47586,2.3366 1.120935,1.36899 0.692428,-1.03865 -0.270874,-1.66186 -1.120935,-1.36899 z"
       id="path1191"
       inkscape:connector-curvature="0" />
    <path
       style="fill:#fcfcfc;fill-opacity:1;stroke:none;stroke-width:0.26458332px;stroke-linecap:butt;stroke-linejoin:miter;stroke-opacity:1"
       d="m 21.093549,279.85153 c -0.789639,0.21397 -0.513081,1.36143 0.158359,1.55233 0.62164,0.32848 1.349223,-0.29979 1.181667,-0.95775 -0.138714,-0.61919 -0.799307,-0.80273 -1.340026,-0.59458 z"
       id="path1191-2"
       inkscape:connector-curvature="0" />
    <path
       style="color:#000000;font-style:normal;font-variant:normal;font-weight:normal;font-stretch:normal;font-size:medium;line-height:normal;font-family:sans-serif;font-variant-ligatures:normal;font-variant-position:normal;font-variant-caps:normal;font-variant-numeric:normal;font-variant-alternates:normal;font-feature-settings:normal;text-indent:0;text-align:start;text-decoration:none;text-decoration-line:none;text-decoration-style:solid;text-decoration-color:#000000;letter-spacing:normal;word-spacing:normal;text-transform:none;writing-mode:lr-tb;direction:ltr;text-orientation:mixed;dominant-baseline:auto;baseline-shift:baseline;text-anchor:start;white-space:normal;shape-padding:0;clip-rule:nonzero;display:inline;overflow:visible;visibility:visible;opacity:1;isolation:auto;mix-blend-mode:normal;color-interpolation:sRGB;color-interpolation-filters:linearRGB;solid-color:#000000;solid-opacity:1;vector-effect:none;fill:#103b6f;fill-opacity:1;fill-rule:nonzero;stroke:none;stroke-width:0.52916682;stroke-linecap:round;stroke-linejoin:round;stroke-miterlimit:4;stroke-dasharray:none;stroke-dashoffset:0;stroke-opacity:1;color-rendering:auto;image-rendering:auto;shape-rendering:auto;text-rendering:auto;enable-background:accumulate"
       d="m 13.713861,267.12863 a 0.26460984,0.26460984 0 0 0 -0.154296,0.0449 c -0.103181,0.07 -0.182174,0.17853 -0.21875,0.29102 -0.03658,0.11248 -0.03716,0.22346 -0.02539,0.33008 0.02353,0.21322 0.09545,0.42702 0.173828,0.67382 0.156752,0.4936 0.343948,1.10296 0.287109,1.83008 -0.113676,1.45425 -1.1929,3.46843 -5.8261719,5.88672 a 0.26460984,0.26460984 0 0 0 -0.025392,0.0156 c -1.5276294,1.03287 -2.8167894,2.48401 -3.4589838,4.25586 -1.0871527,2.69946 -0.5284097,6.06561 1.7558594,8.00781 2.7630494,2.46576 6.6448373,2.85023 10.1152343,2.76367 a 0.26460984,0.26460984 0 0 0 0.02344,-0.002 c 1.371304,-0.15717 2.768329,-0.19353 4.169922,-0.34375 0.0014,-7e-5 0.0025,-0.002 0.0039,-0.002 2.484746,-0.11411 4.926721,-1.15247 6.611328,-3.02343 1.722074,-1.85604 2.841965,-4.72593 1.759766,-7.22657 a 0.26460984,0.26460984 0 0 0 -0.0078,-0.0176 c -1.206725,-2.31893 -3.775487,-4.98076 -6.640625,-7.42578 -2.865137,-2.44501 -6.025321,-4.65978 -8.417969,-6.02343 a 0.26460984,0.26460984 0 0 0 -0.125,-0.0352 z m 0.152344,0.70117 c 2.322645,1.3512 5.306419,3.42115 8.046875,5.75977 2.834395,2.41878 5.364853,5.06847 6.507813,7.25781 0.964964,2.2384 -0.05132,4.91219 -1.664063,6.65039 a 0.26460984,0.26460984 0 0 0 -0.002,0.004 c -1.580256,1.75624 -3.892529,2.74439 -6.248036,2.85156 a 0.26460984,0.26460984 0 0 0 -0.01758,0.002 c -1.370791,0.14774 -2.764796,0.18474 -4.164063,0.34374 -3.423122,0.0854 -7.1568853,-0.30969 -9.7558601,-2.63281 a 0.26460984,0.26460984 0 0 0 -0.00586,-0.004 c -2.0865574,-1.77407 -2.6146186,-4.91452 -1.6054788,-7.41405 a 0.26460984,0.26460984 0 0 0 0.00391,-0.008 c 0.5958456,-1.64703 1.8071831,-3.01982 3.2597657,-4.00195 4.6847562,-2.45211 5.9510712,-4.62347 6.0820312,-6.29883 0.06563,-0.83961 -0.150754,-1.53423 -0.308594,-2.03125 -0.06599,-0.20779 -0.105221,-0.35593 -0.128906,-0.47852 z"
       id="path825-0"
       inkscape:connector-curvature="0" />
    <path
       style="fill:#62a0ea;fill-opacity:1;stroke:#103b6f;stroke-width:0.63471168;stroke-linecap:round;stroke-linejoin:round;stroke-miterlimit:4;stroke-dasharray:none;stroke-opacity:1"
       d="m 8.3142428,289.20272 c 0.1741844,2.27534 0.2434552,2.68396 1.651018,2.77845 1.8659292,-0.17854 1.8870462,-3.4189 1.3321002,-4.34942 -1.4501274,-1.10438 -3.0581714,-0.35984 -2.9831182,1.57097 z"
       id="path827"
       inkscape:connector-curvature="0"
       sodipodi:nodetypes="cccc" />
    <path
       style="fill:#000000;fill-opacity:0.1372549;stroke:none;stroke-width:0.63471168;stroke-linecap:round;stroke-linejoin:round;stroke-miterlimit:4;stroke-dasharray:none;stroke-opacity:1"
       d="m 11.61416,289.94991 c -0.777902,-0.5836 -2.0941905,-0.53982 -3.2251895,0.0173 -0.028034,2.33706 2.6348205,2.79534 3.2251895,-0.0173 z"
       id="path827-2"
       inkscape:connector-curvature="0"
       sodipodi:nodetypes="ccc" />
    <path
       style="color:#000000;font-style:normal;font-variant:normal;font-weight:normal;font-stretch:normal;font-size:medium;line-height:normal;font-family:sans-serif;font-variant-ligatures:normal;font-variant-position:normal;font-variant-caps:normal;font-variant-numeric:normal;font-variant-alternates:normal;font-feature-settings:normal;text-indent:0;text-align:start;text-decoration:none;text-decoration-line:none;text-decoration-style:solid;text-decoration-color:#000000;letter-spacing:normal;word-spacing:normal;text-transform:none;writing-mode:lr-tb;direction:ltr;text-orientation:mixed;dominant-baseline:auto;baseline-shift:baseline;text-anchor:start;white-space:normal;shape-padding:0;clip-rule:nonzero;display:inline;overflow:visible;visibility:visible;opacity:1;isolation:auto;mix-blend-mode:normal;color-interpolation:sRGB;color-interpolation-filters:linearRGB;solid-color:#000000;solid-opacity:1;vector-effect:none;fill:#103b6f;fill-opacity:1;fill-rule:nonzero;stroke:none;stroke-width:0.63471168;stroke-linecap:round;stroke-linejoin:round;stroke-miterlimit:4;stroke-dasharray:none;stroke-dashoffset:0;stroke-opacity:1;color-rendering:auto;image-rendering:auto;shape-rendering:auto;text-rendering:auto;enable-background:accumulate"
       d="m 10.253906,286.82812 c -0.412662,-0.064 -0.8127656,-0.008 -1.1621091,0.16797 -0.6986871,0.35238 -1.134755,1.16386 -1.09375,2.21875 a 0.31738758,0.31738758 0 0 0 0,0.0117 c 0.087226,1.13942 0.1264946,1.82656 0.4003906,2.33399 0.136948,0.25371 0.3543689,0.44803 0.6171875,0.55859 0.2628186,0.11057 0.5607657,0.1531 0.9277344,0.17774 a 0.31738758,0.31738758 0 0 0 0.052734,0 c 0.5570312,-0.0533 0.9996382,-0.35079 1.2968752,-0.75 0.297236,-0.39922 0.467959,-0.89401 0.558593,-1.40235 0.181269,-1.01668 0.08014,-2.06982 -0.28125,-2.67578 a 0.31738758,0.31738758 0 0 0 -0.08008,-0.0898 c -0.398697,-0.30364 -0.823666,-0.48675 -1.236328,-0.55079 z m -0.08984,0.62305 c 0.271028,0.0429 0.567747,0.18572 0.867188,0.39844 0.187306,0.34994 0.348506,1.32438 0.195312,2.18359 -0.07852,0.44039 -0.229185,0.84712 -0.443359,1.13477 -0.210743,0.28304 -0.467741,0.45049 -0.8339842,0.49023 -0.3100069,-0.0235 -0.5437417,-0.0626 -0.6875,-0.12304 -0.1514899,-0.0637 -0.2265995,-0.13073 -0.3046876,-0.27539 -0.1557247,-0.28851 -0.2375358,-0.94631 -0.3242187,-2.07618 -0.031885,-0.87143 0.2963155,-1.39523 0.7441406,-1.62109 0.2245518,-0.11325 0.4927604,-0.15796 0.7871089,-0.11133 z"
       id="path827-3"
       inkscape:connector-curvature="0" />
    <path
       style="fill:url(#radialGradient923);fill-opacity:1;stroke:#f5c211;stroke-width:0.5291667;stroke-linecap:butt;stroke-linejoin:miter;stroke-miterlimit:4;stroke-dasharray:none;stroke-opacity:1"
       d="m 25.182663,266.69102 c -0.760934,0.18612 -2.060985,0.72019 -2.480468,1.55916 -1.682577,2.90637 0.389504,7.18379 4.653832,6.21298 4.094438,-2.72963 3.078443,-7.99096 -2.173364,-7.77214 z"
       id="path915"
       inkscape:connector-curvature="0"
       sodipodi:nodetypes="cccc" />
    <path
       style="fill:none;stroke:#f5c211;stroke-width:0.5291667;stroke-linecap:round;stroke-linejoin:round;stroke-miterlimit:4;stroke-dasharray:none;stroke-opacity:1"
       d="m 18.799188,270.47508 c 0.74056,0 1.481119,0 2.221678,0"
       id="path925"
       inkscape:connector-curvature="0" />
    <path
       style="fill:none;stroke:#f5c211;stroke-width:0.5291667;stroke-linecap:round;stroke-linejoin:round;stroke-miterlimit:4;stroke-dasharray:none;stroke-opacity:1"
       d="m 20.503032,266.11525 c 0.624414,0.25765 1.232602,0.5033 1.703843,1.00226"
       id="path927"
       inkscape:connector-curvature="0" />
    <path
       style="fill:none;stroke:#f5c211;stroke-width:0.5291667;stroke-linecap:round;stroke-linejoin:round;stroke-miterlimit:4;stroke-dasharray:none;stroke-opacity:1"
       d="m 25.855342,264.52309 c 0.02871,0.38201 -0.04841,0.93906 -0.107144,1.29148"
       id="path929"
       inkscape:connector-curvature="0"
       sodipodi:nodetypes="cc" />
    <path
       style="fill:none;stroke:#f5c211;stroke-width:0.5291667;stroke-linecap:round;stroke-linejoin:round;stroke-miterlimit:4;stroke-dasharray:none;stroke-opacity:1"
       d="m 29.790646,267.41818 c 0.351015,-0.17405 1.134534,-0.83769 1.477598,-1.04041"
       id="path931"
       inkscape:connector-curvature="0"
       sodipodi:nodetypes="cc" />
    <path
       style="fill:none;stroke:#f5c211;stroke-width:0.5291667;stroke-linecap:round;stroke-linejoin:round;stroke-miterlimit:4;stroke-dasharray:none;stroke-opacity:1"
       d="m 30.937875,270.72564 c 0.32395,0.0779 1.362207,0.0904 1.710965,0.0904"
       id="path935"
       inkscape:connector-curvature="0"
       sodipodi:nodetypes="cc" />
    <path
       style="fill:none;stroke:#f5c211;stroke-width:0.5291667;stroke-linecap:round;stroke-linejoin:round;stroke-miterlimit:4;stroke-dasharray:none;stroke-opacity:1"
       d="m 28.955431,274.50083 c 0.402947,0.3434 0.733465,0.75776 1.018963,1.186"
       id="path937"
       inkscape:connector-curvature="0" />
    <path
       style="fill:none;stroke:#f5c211;stroke-width:0.5291667;stroke-linecap:round;stroke-linejoin:round;stroke-miterlimit:4;stroke-dasharray:none;stroke-opacity:1"
       d="m 25.848421,275.31934 c 0.03238,0.57287 -0.139401,1.10885 -0.267269,1.62032"
       id="path939"
       inkscape:connector-curvature="0" />
    <path
       style="fill:none;stroke:#f5c211;stroke-width:0.5291667;stroke-linecap:round;stroke-linejoin:round;stroke-miterlimit:4;stroke-dasharray:none;stroke-opacity:1"
       d="m 22.323805,273.76584 c -0.39523,0.38688 -1.018142,0.48192 -1.536799,0.68487"
       id="path941"
       inkscape:connector-curvature="0" />
  </g>
</svg>
