<?xml version="1.0" encoding="UTF-8" standalone="no"?>
<!-- Created with Inkscape (http://www.inkscape.org/) -->

<svg
   xmlns:dc="http://purl.org/dc/elements/1.1/"
   xmlns:cc="http://creativecommons.org/ns#"
   xmlns:rdf="http://www.w3.org/1999/02/22-rdf-syntax-ns#"
   xmlns:svg="http://www.w3.org/2000/svg"
   xmlns="http://www.w3.org/2000/svg"
   xmlns:sodipodi="http://sodipodi.sourceforge.net/DTD/sodipodi-0.dtd"
   xmlns:inkscape="http://www.inkscape.org/namespaces/inkscape"
   width="128"
   height="128"
   viewBox="0 0 33.866666 33.866668"
   version="1.1"
   id="svg8"
   inkscape:version="0.92.4 (5da689c313, 2019-01-14)"
   sodipodi:docname="yay.svg">
  <defs
     id="defs2" />
  <sodipodi:namedview
     id="base"
     pagecolor="#ffffff"
     bordercolor="#666666"
     borderopacity="1.0"
     inkscape:pageopacity="0.0"
     inkscape:pageshadow="2"
     inkscape:zoom="5.6"
     inkscape:cx="52.114929"
     inkscape:cy="78.136697"
     inkscape:document-units="mm"
     inkscape:current-layer="layer1"
     showgrid="true"
     units="px"
     inkscape:pagecheckerboard="true"
     inkscape:window-width="1920"
     inkscape:window-height="985"
     inkscape:window-x="1280"
     inkscape:window-y="36"
     inkscape:window-maximized="1"
     inkscape:snap-bbox="true"
     inkscape:bbox-nodes="true"
     inkscape:snap-object-midpoints="true"
     inkscape:object-nodes="true"
     inkscape:snap-grids="true"
     inkscape:snap-others="true"
     inkscape:snap-nodes="true"
     inkscape:snap-global="false">
    <inkscape:grid
       type="xygrid"
       id="grid834"
       empspacing="4" />
  </sodipodi:namedview>
  <metadata
     id="metadata5">
    <rdf:RDF>
      <cc:Work
         rdf:about="">
        <dc:format>image/svg+xml</dc:format>
        <dc:type
           rdf:resource="http://purl.org/dc/dcmitype/StillImage" />
        <dc:title />
      </cc:Work>
    </rdf:RDF>
  </metadata>
  <g
     inkscape:label="Layer 1"
     inkscape:groupmode="layer"
     id="layer1"
     transform="translate(0,-263.13332)">
    <path
       style="opacity:1;fill:#98c1f1;fill-opacity:1;fill-rule:nonzero;stroke:#1a5fb4;stroke-width:1.05833328;stroke-linecap:round;stroke-linejoin:round;stroke-miterlimit:4;stroke-dasharray:none;stroke-opacity:1;paint-order:normal"
       d="m 17.112684,266.41347 c 12.770658,0.28424 17.002837,21.23438 4.303992,24.6259 -12.1081284,4.52838 -22.8330076,-13.22361 -12.799257,-21.64047 2.366594,-1.89104 5.405371,-3.2708 8.495265,-2.98543 z"
       id="rect836"
       inkscape:connector-curvature="0"
       sodipodi:nodetypes="cccc" />
    <path
       style="fill:#241f31;fill-opacity:1;stroke:none;stroke-width:1.05833328;stroke-linecap:round;stroke-linejoin:round;stroke-miterlimit:4;stroke-dasharray:none;stroke-opacity:1"
       d="m 8.8074601,274.25073 c -2.009707,0.99366 -2.5413978,4.09206 -0.88604,5.64184 0.4659507,-1.31438 0.8786655,-3.67722 2.7593639,-3.3291 1.283968,0.204 1.563996,2.23165 2.693351,2.27491 0.931602,-1.48411 -0.249068,-3.40523 -1.655474,-4.10884 -0.872532,-0.46089 -1.9350541,-0.72369 -2.9112009,-0.47881 z"
       id="path970"
       inkscape:connector-curvature="0" />
    <path
       style="fill:#241f31;fill-opacity:1;stroke:none;stroke-width:1.05833328;stroke-linecap:round;stroke-linejoin:round;stroke-miterlimit:4;stroke-dasharray:none;stroke-opacity:1"
       d="m 21.772044,272.66323 c -2.009707,0.99366 -2.541398,4.09206 -0.88604,5.64184 0.804294,-1.1758 0.971151,-3.56279 2.856314,-3.38991 1.338889,0.10849 1.457547,2.54972 2.716422,2.15854 0.783065,-2.52043 -1.917631,-5.31594 -4.469253,-4.46575 z"
       id="path970-2"
       inkscape:connector-curvature="0" />
    <path
       style="fill:#f8e45c;fill-opacity:1;stroke:#e5a50a;stroke-width:0.79374999;stroke-linecap:round;stroke-linejoin:round;stroke-miterlimit:4;stroke-dasharray:none;stroke-opacity:1"
       d="m 19.584255,278.605 c -1.058333,-0.52917 -2.399122,-0.22966 -3.321466,0.23151 -1.288404,0.6442 -0.90873,4.94254 -0.259858,6.024 0.563433,0.93905 3.28719,0.88712 3.661644,-0.23624 0.949084,-2.84725 -2.918505,-1.71711 -1.984375,-3.1183 0.535103,-0.80266 3.491555,-0.51972 1.904055,-2.90097 z"
       id="path1003"
       inkscape:connector-curvature="0"
       sodipodi:nodetypes="cscscc" />
    <path
       style="fill:#62a0ea;fill-opacity:1;stroke:#1a5fb4;stroke-width:1.05833328;stroke-linecap:round;stroke-linejoin:round;stroke-miterlimit:4;stroke-dasharray:none;stroke-opacity:1"
       d="m 24.887103,292.89714 c -1.95971,0.10012 -3.291219,-2.09117 -2.664043,-3.85885 0.402856,-2.15187 2.305942,-4.3488 4.661632,-4.06136 1.731976,0.18988 2.709259,2.05021 2.182714,3.63602 -0.470545,1.96531 -2.052209,4.05484 -4.180303,4.28419 z"
       id="path1005"
       inkscape:connector-curvature="0" />
    <path
       style="fill:#62a0ea;fill-opacity:1;stroke:#1a5fb4;stroke-width:1.05833328;stroke-linecap:round;stroke-linejoin:round;stroke-miterlimit:4;stroke-dasharray:none;stroke-opacity:1"
       d="m 14.494029,291.76669 c -0.86105,3.10619 -5.3062722,2.21031 -6.5267316,-0.17847 -1.8064781,-1.97473 -0.546441,-6.13994 2.5095626,-5.33234 2.332969,0.57765 4.299436,3.07015 4.017169,5.51081 z"
       id="path1005-9"
       inkscape:connector-curvature="0" />
    <path
       style="fill:none;stroke:#ed333b;stroke-width:2.11666667;stroke-linecap:round;stroke-linejoin:round;stroke-opacity:1;stroke-miterlimit:4;stroke-dasharray:none"
       d="M 8.4666666,283.50624 C 9.6321241,282.65639 11.675632,282.51357 12.7,282.4479"
       id="path1037"
       inkscape:connector-curvature="0" />
    <path
       style="fill:none;stroke:#ed333b;stroke-width:2.11666656;stroke-linecap:round;stroke-linejoin:round;stroke-miterlimit:4;stroke-dasharray:none;stroke-opacity:1"
       d="m 21.695833,281.65415 c 1.720497,-0.17303 3.726227,0.41245 5.315291,0.35435"
       id="path1041"
       inkscape:connector-curvature="0"
       sodipodi:nodetypes="cc" />
    <g
       id="g852"
       transform="translate(0.46609277,-0.56493027)">
      <path
         inkscape:connector-curvature="0"
         id="path825"
         d="m 25.557648,266.93216 c -6.404445,0.21989 -1.72864,10.3815 3.274053,5.3788 0.694164,-0.69416 0.977479,-1.98726 0.534538,-2.87314 -0.927148,-1.8543 -2.06161,-2.08638 -3.808591,-2.50566 z"
         style="fill:#f8e45c;fill-opacity:1;stroke:#e5a50a;stroke-width:1.32291663;stroke-linecap:round;stroke-linejoin:bevel;stroke-miterlimit:4;stroke-dasharray:none;stroke-opacity:1" />
      <path
         inkscape:connector-curvature="0"
         id="path827"
         d="m 19.109771,270.1394 c 0.908634,-0.0106 1.856019,-0.002 2.739513,0.0334"
         style="fill:none;stroke:#e5a50a;stroke-width:1.32291663;stroke-linecap:round;stroke-linejoin:round;stroke-miterlimit:4;stroke-dasharray:none;stroke-opacity:1" />
      <path
         sodipodi:nodetypes="cc"
         inkscape:connector-curvature="0"
         id="path829"
         d="m 20.379301,266.06354 c 0.647192,0.45216 2.05581,1.39907 2.706104,1.77067"
         style="fill:none;stroke:#e5a50a;stroke-width:1.32291663;stroke-linecap:round;stroke-linejoin:round;stroke-miterlimit:4;stroke-dasharray:none;stroke-opacity:1" />
      <path
         inkscape:connector-curvature="0"
         id="path831"
         d="m 25.891735,264.79401 c -0.05631,0.62871 -0.03341,1.27036 -0.03341,1.9043"
         style="fill:none;stroke:#e5a50a;stroke-width:1.32291663;stroke-linecap:round;stroke-linejoin:round;stroke-miterlimit:4;stroke-dasharray:none;stroke-opacity:1" />
      <path
         sodipodi:nodetypes="cc"
         inkscape:connector-curvature="0"
         id="path833"
         d="m 28.664657,267.96783 c 0.33554,-0.9117 1.445258,-1.36155 2.27179,-1.73725"
         style="fill:none;stroke:#e5a50a;stroke-width:1.32291663;stroke-linecap:round;stroke-linejoin:round;stroke-miterlimit:4;stroke-dasharray:none;stroke-opacity:1" />
      <path
         inkscape:connector-curvature="0"
         id="path835"
         d="m 30.33509,270.60712 c 0.668174,0 1.336347,0 2.004521,0"
         style="fill:none;stroke:#e5a50a;stroke-width:1.32291663;stroke-linecap:round;stroke-linejoin:round;stroke-miterlimit:4;stroke-dasharray:none;stroke-opacity:1" />
      <path
         sodipodi:nodetypes="cc"
         inkscape:connector-curvature="0"
         id="path837"
         d="m 28.397386,273.01254 c 0.612347,0.40684 2.39256,1.79795 2.873149,2.33861"
         style="fill:none;stroke:#e5a50a;stroke-width:1.32291663;stroke-linecap:round;stroke-linejoin:round;stroke-miterlimit:4;stroke-dasharray:none;stroke-opacity:1" />
      <path
         sodipodi:nodetypes="cc"
         inkscape:connector-curvature="0"
         id="path839"
         d="m 25.657874,274.24866 c 0.01981,0.56943 -0.08771,1.68727 -0.133635,2.23839"
         style="fill:none;stroke:#e5a50a;stroke-width:1.32291663;stroke-linecap:round;stroke-linejoin:round;stroke-miterlimit:4;stroke-dasharray:none;stroke-opacity:1" />
      <path
         sodipodi:nodetypes="cc"
         inkscape:connector-curvature="0"
         id="path841"
         d="m 23.051997,272.61163 c -0.890139,0.1635 -1.79977,1.2038 -2.605878,1.57021"
         style="fill:none;stroke:#e5a50a;stroke-width:1.32291663;stroke-linecap:round;stroke-linejoin:round;stroke-miterlimit:4;stroke-dasharray:none;stroke-opacity:1" />
    </g>
  </g>
</svg>
