<?xml version="1.0" encoding="UTF-8"?>
<svg xmlns="http://www.w3.org/2000/svg" xmlns:xlink="http://www.w3.org/1999/xlink" width="128px" height="128px" viewBox="0 0 128 128" version="1.1">
<defs>
<linearGradient id="linear0" gradientUnits="userSpaceOnUse" x1="20" y1="96" x2="56" y2="132" gradientTransform="matrix(1,0,0,1,-8,-16)">
<stop offset="0" style="stop-color:rgb(80.392158%,67.058825%,56.078434%);stop-opacity:1;"/>
<stop offset="1" style="stop-color:rgb(70.980394%,51.372552%,35.294119%);stop-opacity:1;"/>
</linearGradient>
<linearGradient id="linear1" gradientUnits="userSpaceOnUse" x1="120" y1="112" x2="40" y2="32" gradientTransform="matrix(1,0,0,1,-8,-16)">
<stop offset="0" style="stop-color:rgb(87.843138%,10.588235%,14.117648%);stop-opacity:1;"/>
<stop offset="1" style="stop-color:rgb(96.470588%,38.039216%,31.764707%);stop-opacity:1;"/>
</linearGradient>
</defs>
<g id="surface56807">
<path style=" stroke:none;fill-rule:nonzero;fill:url(#linear0);" d="M 35.574219 76.730469 C 33.296875 76.769531 31.082031 77.515625 29.425781 79.171875 L 11.1875 97.414062 C 9.785156 98.8125 9.644531 100.347656 9.628906 102.105469 C 9.613281 103.863281 9.972656 105.863281 10.847656 107.90625 C 11.722656 109.953125 13.027344 111.8125 14.609375 113.394531 C 16.1875 114.972656 18.046875 116.277344 20.09375 117.152344 C 24.179688 118.90625 28.699219 118.703125 31.566406 115.832031 L 48.828125 98.574219 C 51.035156 96.367188 51.628906 93.164062 51.078125 90.148438 C 50.53125 87.136719 48.910156 84.132812 46.390625 81.609375 C 43.867188 79.089844 40.863281 77.46875 37.847656 76.921875 C 37.097656 76.78125 36.332031 76.71875 35.574219 76.730469 Z M 35.574219 76.730469 "/>
<path style=" stroke:none;fill-rule:nonzero;fill:url(#linear1);" d="M 74.914062 13.746094 C 74.265625 13.761719 73.648438 14.035156 73.195312 14.5 L 33.195312 54.5 C 27.738281 59.957031 27.140625 68.855469 30.835938 77.46875 C 32.683594 81.773438 35.464844 85.761719 38.851562 89.148438 C 42.238281 92.535156 46.226562 95.316406 50.53125 97.164062 C 59.144531 100.859375 68.042969 100.261719 73.5 94.804688 L 113.5 54.804688 C 114.152344 54.175781 114.417969 53.246094 114.1875 52.371094 C 113.960938 51.496094 113.273438 50.808594 112.398438 50.582031 C 111.523438 50.351562 110.59375 50.617188 109.964844 51.269531 L 76.730469 18.035156 C 77.46875 17.316406 77.691406 16.21875 77.289062 15.269531 C 76.886719 14.320312 75.945312 13.714844 74.914062 13.746094 Z M 74.914062 13.746094 "/>
<path style=" stroke:none;fill-rule:nonzero;fill:rgb(97.254902%,50.588238%,45.882353%);fill-opacity:1;" d="M 85.171875 9.796875 C 80.613281 9.863281 76.347656 11.347656 73.195312 14.5 C 68.992188 18.703125 67.757812 24.882812 68.886719 31.097656 C 70.015625 37.316406 73.445312 43.742188 78.851562 49.148438 C 84.257812 54.554688 90.683594 57.980469 96.898438 59.109375 C 103.117188 60.242188 109.296875 59.011719 113.5 54.808594 C 117.703125 50.601562 118.9375 44.417969 117.808594 38.203125 C 116.679688 31.988281 113.25 25.566406 107.84375 20.15625 C 102.4375 14.75 96.011719 11.320312 89.796875 10.191406 C 88.242188 9.910156 86.6875 9.773438 85.171875 9.796875 Z M 85.171875 9.796875 "/>
</g>
</svg>
