<?xml version="1.0" encoding="UTF-8" standalone="no"?>
<!-- Created with Inkscape (http://www.inkscape.org/) -->

<svg
   xmlns:dc="http://purl.org/dc/elements/1.1/"
   xmlns:cc="http://creativecommons.org/ns#"
   xmlns:rdf="http://www.w3.org/1999/02/22-rdf-syntax-ns#"
   xmlns:svg="http://www.w3.org/2000/svg"
   xmlns="http://www.w3.org/2000/svg"
   xmlns:sodipodi="http://sodipodi.sourceforge.net/DTD/sodipodi-0.dtd"
   xmlns:inkscape="http://www.inkscape.org/namespaces/inkscape"
   width="128"
   height="128"
   viewBox="0 0 33.866666 33.866668"
   version="1.1"
   id="svg8"
   inkscape:version="0.92.4 (5da689c313, 2019-01-14)"
   sodipodi:docname="zzz.svg">
  <defs
     id="defs2" />
  <sodipodi:namedview
     id="base"
     pagecolor="#ffffff"
     bordercolor="#666666"
     borderopacity="1.0"
     inkscape:pageopacity="0.0"
     inkscape:pageshadow="2"
     inkscape:zoom="5.6"
     inkscape:cx="103.13139"
     inkscape:cy="70.493157"
     inkscape:document-units="mm"
     inkscape:current-layer="layer1"
     showgrid="true"
     units="px"
     inkscape:pagecheckerboard="true"
     inkscape:window-width="1920"
     inkscape:window-height="985"
     inkscape:window-x="1280"
     inkscape:window-y="36"
     inkscape:window-maximized="1"
     inkscape:snap-bbox="true"
     inkscape:bbox-nodes="true"
     inkscape:snap-object-midpoints="true"
     inkscape:object-nodes="true"
     inkscape:snap-grids="true"
     inkscape:snap-others="true"
     inkscape:snap-nodes="true"
     inkscape:snap-global="false">
    <inkscape:grid
       type="xygrid"
       id="grid834"
       empspacing="4" />
  </sodipodi:namedview>
  <metadata
     id="metadata5">
    <rdf:RDF>
      <cc:Work
         rdf:about="">
        <dc:format>image/svg+xml</dc:format>
        <dc:type
           rdf:resource="http://purl.org/dc/dcmitype/StillImage" />
        <dc:title />
      </cc:Work>
    </rdf:RDF>
  </metadata>
  <g
     inkscape:label="Layer 1"
     inkscape:groupmode="layer"
     id="layer1"
     transform="translate(0,-263.13332)">
    <path
       style="opacity:1;fill:#ffbe6f;fill-opacity:1;fill-rule:nonzero;stroke:#c64600;stroke-width:1.05833328;stroke-linecap:round;stroke-linejoin:round;stroke-miterlimit:4;stroke-dasharray:none;stroke-opacity:1;paint-order:normal"
       d="M 17.301672,266.36622 C 29.702613,266.1477 34.089251,287.09401 21.9538,291.10453 10.472852,295.5778 -1.3849073,278.49987 8.1969272,269.9103 c 2.3355158,-2.40135 5.7246708,-3.89638 9.1047448,-3.54408 z"
       id="rect836"
       inkscape:connector-curvature="0" />
    <path
       style="fill:#ffa348;fill-opacity:1;stroke:#c64600;stroke-width:1.05833328;stroke-linecap:round;stroke-linejoin:round;stroke-miterlimit:4;stroke-dasharray:none;stroke-opacity:1"
       d="m 24.887103,292.89714 c -1.95971,0.10012 -3.291219,-2.09117 -2.664043,-3.85885 0.402856,-2.15187 2.305942,-4.3488 4.661632,-4.06136 1.731976,0.18988 2.709259,2.05021 2.182714,3.63602 -0.470545,1.96531 -2.052209,4.05484 -4.180303,4.28419 z"
       id="path1005"
       inkscape:connector-curvature="0" />
    <path
       style="fill:#ffa348;fill-opacity:1;stroke:#c64600;stroke-width:1.05833328;stroke-linecap:round;stroke-linejoin:round;stroke-miterlimit:4;stroke-dasharray:none;stroke-opacity:1"
       d="m 14.494029,291.76669 c -0.86105,3.10619 -5.3062722,2.21031 -6.5267316,-0.17847 -1.8064781,-1.97473 -0.546441,-6.13994 2.5095626,-5.33234 2.332969,0.57765 4.299436,3.07015 4.017169,5.51081 z"
       id="path1005-9"
       inkscape:connector-curvature="0" />
    <path
       style="fill:none;stroke:#f66151;stroke-width:2.11666667;stroke-linecap:round;stroke-linejoin:round;stroke-opacity:1;stroke-miterlimit:4;stroke-dasharray:none"
       d="M 8.4666666,283.50624 C 9.6321241,282.65639 11.675632,282.51357 12.7,282.4479"
       id="path1037"
       inkscape:connector-curvature="0" />
    <path
       style="fill:none;stroke:#f66151;stroke-width:2.11666656;stroke-linecap:round;stroke-linejoin:round;stroke-miterlimit:4;stroke-dasharray:none;stroke-opacity:1"
       d="m 21.695833,281.65415 c 1.720497,-0.17303 3.726227,0.41245 5.315291,0.35435"
       id="path1041"
       inkscape:connector-curvature="0"
       sodipodi:nodetypes="cc" />
    <path
       style="fill:none;stroke:#c64600;stroke-width:1.05833328;stroke-linecap:round;stroke-linejoin:round;stroke-miterlimit:4;stroke-dasharray:none;stroke-opacity:1"
       d="m 16.366901,267.89795 c 1.853764,0.97611 2.844744,3.72396 1.403165,5.64607 -0.776996,1.03599 -2.618281,1.16186 -3.608139,0.56795 -2.422292,-1.45338 0.643715,-6.234 2.706104,-2.97338 0.697805,0.75829 -1.220577,3.18475 -1.703843,0.70159"
       id="path1211"
       inkscape:connector-curvature="0"
       sodipodi:nodetypes="ccccc" />
    <path
       style="fill:none;stroke:#241f31;stroke-width:1.85208333;stroke-linecap:round;stroke-linejoin:round;stroke-opacity:1;stroke-miterlimit:4;stroke-dasharray:none"
       d="m 6.5673361,278.62089 c 2.260139,-0.74859 4.7317379,-1.20316 7.1343009,-1.65364"
       id="path824"
       inkscape:connector-curvature="0" />
    <path
       style="fill:none;stroke:#241f31;stroke-width:2.11666656;stroke-linecap:round;stroke-linejoin:round;stroke-miterlimit:4;stroke-dasharray:none;stroke-opacity:1"
       d="m 20.31622,276.35304 c 2.528176,-0.0865 5.004152,0.17376 7.1343,1.08668"
       id="path826"
       inkscape:connector-curvature="0" />
    <path
       style="fill:#99c1f1;stroke:#62a0ea;stroke-width:1.32291663;stroke-linecap:butt;stroke-linejoin:miter;stroke-miterlimit:4;stroke-dasharray:none;stroke-opacity:1;fill-opacity:1"
       d="m 17.840241,280.56291 c 7.086631,-0.0559 3.456546,-7.224 8.65285,-9.82215 0.739677,-0.36984 2.137765,-1.18058 3.073601,-0.86863 4.199388,1.3998 2.667421,11.70957 -0.53454,13.63075 -3.449968,2.06998 -7.719502,-1.27049 -11.091685,-0.56795"
       id="path825"
       inkscape:connector-curvature="0"
       sodipodi:nodetypes="cccsc" />
    <path
       style="fill:#f8e45c;fill-opacity:1;stroke:#e5a50a;stroke-width:0.79374999;stroke-linecap:round;stroke-linejoin:round;stroke-miterlimit:4;stroke-dasharray:none;stroke-opacity:1"
       d="m 19.584255,278.605 c -1.058333,-0.52917 -2.374995,-0.17787 -3.321466,0.23151 -1.880483,0.81337 -1.235236,5.03583 -0.259858,6.024 0.563433,0.93905 3.28719,0.88712 3.661644,-0.23624 0.949084,-2.84725 -2.183514,-2.38528 -1.984375,-3.1183 0.535103,-0.80266 3.491555,-0.51972 1.904055,-2.90097 z"
       id="path1003"
       inkscape:connector-curvature="0"
       sodipodi:nodetypes="cscscc" />
    <path
       style="fill:none;stroke:#ffffff;stroke-width:1.32291667;stroke-linecap:round;stroke-linejoin:round;stroke-opacity:1;fill-opacity:1;stroke-miterlimit:4;stroke-dasharray:none"
       d="m 27.578875,272.19403 c -2.60776,0.13401 -2.481854,4.0068 -3.34087,5.89664"
       id="path827"
       inkscape:connector-curvature="0" />
  </g>
</svg>
