<?xml version="1.0" encoding="UTF-8"?>
<svg xmlns="http://www.w3.org/2000/svg" xmlns:xlink="http://www.w3.org/1999/xlink" width="16px" height="16px" viewBox="0 0 16 16" version="1.1">
<g id="surface3377">
<path style=" stroke:none;fill-rule:nonzero;fill:rgb(18.039216%,16.470589%,14.509805%);fill-opacity:1;" d="M 8 0 C 4.6875 0 2 4.921875 2 9.210938 C 2 13.5 4.6875 16 8 16 C 11.3125 16 14 13.5 14 9.210938 C 14 4.921875 11.3125 0 8 0 Z M 5 4 L 11 4 L 11 10 L 5 10 Z M 5 11 C 5.550781 11 6 11.449219 6 12 C 6 12.550781 5.550781 13 5 13 C 4.449219 13 4 12.550781 4 12 C 4 11.449219 4.449219 11 5 11 Z M 8 11 C 8.550781 11 9 11.449219 9 12 C 9 12.550781 8.550781 13 8 13 C 7.449219 13 7 12.550781 7 12 C 7 11.449219 7.449219 11 8 11 Z M 11 11 C 11.550781 11 12 11.449219 12 12 C 12 12.550781 11.550781 13 11 13 C 10.449219 13 10 12.550781 10 12 C 10 11.449219 10.449219 11 11 11 Z M 11 11 "/>
</g>
</svg>
