<?xml version="1.0" encoding="UTF-8" standalone="no"?>
<svg
   xmlns:dc="http://purl.org/dc/elements/1.1/"
   xmlns:cc="http://creativecommons.org/ns#"
   xmlns:rdf="http://www.w3.org/1999/02/22-rdf-syntax-ns#"
   xmlns:svg="http://www.w3.org/2000/svg"
   xmlns="http://www.w3.org/2000/svg"
   xmlns:sodipodi="http://sodipodi.sourceforge.net/DTD/sodipodi-0.dtd"
   xmlns:inkscape="http://www.inkscape.org/namespaces/inkscape"
   width="128px"
   height="128px"
   viewBox="0 0 128 128"
   version="1.1"
   id="svg21"
   sodipodi:docname="idle.svg"
   inkscape:version="0.92.4 (5da689c313, 2019-01-14)">
  <metadata
     id="metadata25">
    <rdf:RDF>
      <cc:Work
         rdf:about="">
        <dc:format>image/svg+xml</dc:format>
        <dc:type
           rdf:resource="http://purl.org/dc/dcmitype/StillImage" />
      </cc:Work>
    </rdf:RDF>
  </metadata>
  <sodipodi:namedview
     pagecolor="#ffffff"
     bordercolor="#666666"
     borderopacity="1"
     objecttolerance="10"
     gridtolerance="10"
     guidetolerance="10"
     inkscape:pageopacity="0"
     inkscape:pageshadow="2"
     inkscape:window-width="1920"
     inkscape:window-height="985"
     id="namedview23"
     showgrid="false"
     inkscape:zoom="2.6074563"
     inkscape:cx="81.497019"
     inkscape:cy="31.550438"
     inkscape:window-x="1280"
     inkscape:window-y="36"
     inkscape:window-maximized="1"
     inkscape:current-layer="surface50617" />
  <defs
     id="defs12">
    <linearGradient
       id="linear0"
       gradientUnits="userSpaceOnUse"
       x1="20"
       y1="96"
       x2="56"
       y2="132"
       gradientTransform="matrix(1,0,0,1,-8,-16)">
      <stop
         offset="0"
         style="stop-color:rgb(80.392158%,67.058825%,56.078434%);stop-opacity:1;"
         id="stop2" />
      <stop
         offset="1"
         style="stop-color:rgb(70.980394%,51.372552%,35.294119%);stop-opacity:1;"
         id="stop4" />
    </linearGradient>
    <linearGradient
       id="linear1"
       gradientUnits="userSpaceOnUse"
       x1="120"
       y1="112"
       x2="40"
       y2="32"
       gradientTransform="matrix(1,0,0,1,-8,-16)">
      <stop
         offset="0"
         style="stop-color:rgb(20%,81.960785%,47.843137%);stop-opacity:1;"
         id="stop7" />
      <stop
         offset="1"
         style="stop-color:rgb(34.117648%,89.019608%,53.725493%);stop-opacity:1;"
         id="stop9" />
    </linearGradient>
  </defs>
  <g
     id="surface50617">
    <path
       style="fill:#f6f5f4;fill-opacity:1;stroke:#9a9996;stroke-width:5;stroke-linecap:butt;stroke-linejoin:miter;stroke-miterlimit:4;stroke-dasharray:none;stroke-opacity:1"
       d="M 52.801463,57.700703 C 49.164268,32.397271 60.785729,13.417492 85.400285,5.9261049 89.065583,24.934173 85.340225,44.709653 80.989856,62.111132 70.579442,64.256035 60.674466,64.744968 52.801463,57.700703 Z"
       id="path880"
       inkscape:connector-curvature="0" />
    <path
       style="fill:#f6f5f4;fill-opacity:1;stroke:#9a9996;stroke-width:5;stroke-linecap:butt;stroke-linejoin:miter;stroke-miterlimit:4;stroke-dasharray:none;stroke-opacity:1"
       d="m 74.948976,79.816958 c 16.46657,-0.373614 32.905204,-10.44698 38.553134,-26.300595 2.58094,-6.404214 3.81136,-13.28889 4.14144,-20.166369 -18.813511,0.241197 -36.554247,7.799032 -52.888329,16.530592 -2.087249,6.877465 0.793423,14.068193 2.92114,20.573843 1.677662,3.611168 4.105354,6.92046 7.272615,9.362529 z"
       id="path880-5"
       inkscape:connector-curvature="0" />
    <path
       style="fill:#f6f5f4;fill-opacity:1;stroke:#9a9996;stroke-width:5;stroke-linecap:butt;stroke-linejoin:miter;stroke-miterlimit:4;stroke-dasharray:none;stroke-opacity:1"
       d="m 58.170681,51.18094 c -21.496343,18.713064 22.052144,43.146146 22.052144,12.080739 0,-4.820462 -2.217322,-8.748997 -6.711522,-10.546677 -6.417621,-2.567048 -9.859949,-4.274399 -15.340622,-1.534062 z"
       id="path878"
       inkscape:connector-curvature="0" />
    <path
       style="fill:#f66151;fill-opacity:1;stroke:#a51d2d;stroke-width:5;stroke-linecap:butt;stroke-linejoin:miter;stroke-miterlimit:4;stroke-dasharray:none;stroke-opacity:1"
       d="M 46.603188,58.84036 C 29.146881,56.335821 -1.7166702,85.561891 15.071835,92.225081 c 23.3509,9.267739 48.845228,-0.30777 40.121038,-27.240284 -1.922066,-3.738841 -4.966678,-5.624626 -8.589685,-6.144437 z m -1.189307,8.268863 c 22.085229,2.314652 -25.440244,36.723617 -24.442342,15.813553 0.138795,-2.908323 1.463712,-6.595584 3.697385,-8.302652 4.611585,-3.52437 9.01864,-6.574905 15.364951,-7.52093 2.12611,-0.156878 3.90766,-0.14428 5.380009,0.01003 z"
       id="path821"
       inkscape:connector-curvature="0" />
    <path
       style="fill:#f66151;fill-opacity:1;stroke:#a51d2d;stroke-width:5;stroke-linecap:butt;stroke-linejoin:miter;stroke-miterlimit:4;stroke-dasharray:none;stroke-opacity:1"
       d="m 75.047171,118.50896 c 5.189421,-8.52282 5.366321,-19.155381 2.997215,-28.606555 -1.077724,-4.139596 -2.415788,-8.269463 -4.449933,-12.041588 -2.229531,-3.594001 -7.112352,-6.226065 -11.170832,-4.045826 -2.565518,1.739583 -4.740191,4.025503 -6.859627,6.280261 -5.956669,6.613453 -10.477778,15.294153 -9.777452,24.416288 0.460395,7.9204 6.731113,14.62403 14.007961,17.17256 3.922517,1.29986 8.535886,1.66833 12.293067,-0.30338 1.190473,-0.71039 2.234002,-1.68549 2.959601,-2.87176 z m -6.647473,-5.05961 c -0.872789,2.6832 -4.189932,3.8829 -6.641081,2.53495 -2.982977,-1.19512 -4.382817,-4.35761 -4.412448,-7.36584 -1.964078,-7.38741 -2.579453,-15.536896 0.452765,-22.730694 2.029886,-3.082828 6.504762,-3.18454 9.377215,-1.264163 2.220735,1.303488 3.808368,3.580794 4.232335,6.119542 2.510605,7.488533 1.504973,16.172915 -3.008786,22.706205 z"
       id="path821-7"
       inkscape:connector-curvature="0" />
  </g>
</svg>
