<?xml version="1.0" encoding="UTF-8" standalone="no"?>
<svg
   xmlns:dc="http://purl.org/dc/elements/1.1/"
   xmlns:cc="http://creativecommons.org/ns#"
   xmlns:rdf="http://www.w3.org/1999/02/22-rdf-syntax-ns#"
   xmlns:svg="http://www.w3.org/2000/svg"
   xmlns="http://www.w3.org/2000/svg"
   xmlns:sodipodi="http://sodipodi.sourceforge.net/DTD/sodipodi-0.dtd"
   xmlns:inkscape="http://www.inkscape.org/namespaces/inkscape"
   width="128px"
   height="128px"
   viewBox="0 0 128 128"
   version="1.1"
   id="svg21"
   sodipodi:docname="eat-4.svg"
   inkscape:version="0.92.4 (5da689c313, 2019-01-14)">
  <metadata
     id="metadata25">
    <rdf:RDF>
      <cc:Work
         rdf:about="">
        <dc:format>image/svg+xml</dc:format>
        <dc:type
           rdf:resource="http://purl.org/dc/dcmitype/StillImage" />
        <dc:title></dc:title>
      </cc:Work>
    </rdf:RDF>
  </metadata>
  <sodipodi:namedview
     pagecolor="#ffffff"
     bordercolor="#666666"
     borderopacity="1"
     objecttolerance="10"
     gridtolerance="10"
     guidetolerance="10"
     inkscape:pageopacity="0"
     inkscape:pageshadow="2"
     inkscape:window-width="1920"
     inkscape:window-height="985"
     id="namedview23"
     showgrid="false"
     inkscape:zoom="3.6875"
     inkscape:cx="60.727945"
     inkscape:cy="42.121991"
     inkscape:window-x="1280"
     inkscape:window-y="36"
     inkscape:window-maximized="1"
     inkscape:current-layer="surface50617"
     inkscape:snap-smooth-nodes="true" />
  <defs
     id="defs12">
    <linearGradient
       id="linear0"
       gradientUnits="userSpaceOnUse"
       x1="20"
       y1="96"
       x2="56"
       y2="132"
       gradientTransform="matrix(1,0,0,1,-8,-16)">
      <stop
         offset="0"
         style="stop-color:rgb(80.392158%,67.058825%,56.078434%);stop-opacity:1;"
         id="stop2" />
      <stop
         offset="1"
         style="stop-color:rgb(70.980394%,51.372552%,35.294119%);stop-opacity:1;"
         id="stop4" />
    </linearGradient>
    <linearGradient
       id="linear1"
       gradientUnits="userSpaceOnUse"
       x1="120"
       y1="112"
       x2="40"
       y2="32"
       gradientTransform="matrix(1,0,0,1,-8,-16)">
      <stop
         offset="0"
         style="stop-color:rgb(20%,81.960785%,47.843137%);stop-opacity:1;"
         id="stop7" />
      <stop
         offset="1"
         style="stop-color:rgb(34.117648%,89.019608%,53.725493%);stop-opacity:1;"
         id="stop9" />
    </linearGradient>
  </defs>
  <g
     id="surface50617">
    <path
       style=" stroke:none;fill-rule:nonzero;fill:url(#linear0);"
       d="M 35.574219 76.730469 C 33.296875 76.769531 31.082031 77.515625 29.425781 79.171875 L 11.1875 97.414062 C 9.785156 98.8125 9.644531 100.347656 9.628906 102.105469 C 9.613281 103.863281 9.972656 105.863281 10.847656 107.90625 C 11.722656 109.953125 13.027344 111.8125 14.609375 113.394531 C 16.1875 114.972656 18.046875 116.277344 20.09375 117.152344 C 24.179688 118.90625 28.699219 118.703125 31.566406 115.832031 L 48.828125 98.574219 C 51.035156 96.367188 51.628906 93.164062 51.078125 90.148438 C 50.53125 87.136719 48.910156 84.132812 46.390625 81.609375 C 43.867188 79.089844 40.863281 77.46875 37.847656 76.921875 C 37.097656 76.78125 36.332031 76.71875 35.574219 76.730469 Z M 35.574219 76.730469 "
       id="path14" />
    <path
       style="fill:#986a44;fill-opacity:1;fill-rule:nonzero;stroke:none;stroke-width:0.47820306"
       d="m 35.244706,76.790676 c -2.24109,0.03089 -4.338152,0.721351 -5.887903,2.187674 -2.066336,1.955099 -2.673178,4.829602 -2.118186,7.720458 0.554991,2.892674 2.24109,5.881646 4.898905,8.396383 2.657813,2.514738 5.816849,4.108247 8.872183,4.633369 3.057254,0.52693 6.095307,-0.04548 8.161639,-2.000527 2.066337,-1.956915 2.673177,-4.833238 2.118183,-7.724091 -0.554987,-2.890857 -2.241088,-5.878014 -4.898902,-8.394567 -2.657813,-2.514736 -5.816849,-4.110066 -8.872182,-4.635181 -0.764314,-0.130825 -1.528627,-0.19442 -2.273737,-0.183518 z m 0,0"
       id="path18"
       inkscape:connector-curvature="0" />
  </g>
</svg>
